<svg t="1590923269895" class="icon" viewBox="0 0 1024 1024" version="1.1" xmlns="http://www.w3.org/2000/svg" p-id="5195" width="200" height="200"><path d="M384 896c0 23.466667 19.2 42.666667 42.666667 42.666667l170.666667 0c23.466667 0 42.666667-19.2 42.666667-42.666667l0-42.666667L384 853.333333 384 896zM512 85.333333c-164.906667 0-298.666667 133.76-298.666667 298.666667 0 101.546667 50.773333 190.933333 128 244.906667L341.333333 725.333333c0 23.466667 19.2 42.666667 42.666667 42.666667l256 0c23.466667 0 42.666667-19.2 42.666667-42.666667l0-96.426667c77.226667-53.973333 128-143.36 128-244.906667C810.666667 219.093333 676.906667 85.333333 512 85.333333zM633.813333 558.933333 597.333333 584.32 597.333333 682.666667l-170.666667 0 0-98.133333-36.48-25.386667C332.8 519.04 298.666667 453.76 298.666667 384.213333c0-117.546667 95.786667-213.333333 213.333333-213.333333s213.333333 95.786667 213.333333 213.333333C725.333333 453.546667 691.2 518.826667 633.813333 558.933333z" p-id="5196" fill="#ea6f5a"></path></svg>