<svg t="1590923208893" class="icon" viewBox="0 0 1024 1024" version="1.1" xmlns="http://www.w3.org/2000/svg" p-id="3371" width="200" height="200"><path d="M853.333333 597.333333h-85.333333v128a85.333333 85.333333 0 0 1-85.333333 85.333334H399.488L256 938.666667l-42.666667-128H170.666667a85.333333 85.333333 0 0 1-85.333334-85.333334V341.333333a85.333333 85.333333 0 0 1 85.333334-85.333333h170.666666V170.666667a85.333333 85.333333 0 0 1 85.333334-85.333334h426.666666a85.333333 85.333333 0 0 1 85.333334 85.333334v341.333333a85.333333 85.333333 0 0 1-85.333334 85.333333zM213.333333 341.333333a42.666667 42.666667 0 0 0-42.666666 42.666667v298.666667a42.666667 42.666667 0 0 0 42.666666 42.666666h426.666667a42.666667 42.666667 0 0 0 42.666667-42.666666v-85.333334h-256a85.333333 85.333333 0 0 1-85.333334-85.333333V341.333333H213.333333z m469.333334 170.666667V384a42.666667 42.666667 0 0 0-42.666667-42.666667h-213.333333v128a42.666667 42.666667 0 0 0 42.666666 42.666667h213.333334z m170.666666-298.666667a42.666667 42.666667 0 0 0-42.666666-42.666666h-341.333334a42.666667 42.666667 0 0 0-42.666666 42.666666v42.666667h256a85.333333 85.333333 0 0 1 85.333333 85.333333v170.666667h42.666667a42.666667 42.666667 0 0 0 42.666666-42.666667V213.333333z" p-id="3372" fill="#ea6f5a"></path></svg>